#define _width 19
#define _height 22
static char _bits[] = {
 0x03,0x00,0x06,0x00,0x00,0x04,0x00,0x00,0x00,0x00,0x00,0x00,0x00,0x00,0x00,
 0xfe,0xff,0x03,0x02,0x00,0x02,0x02,0x00,0x02,0xfe,0xff,0x03,0xfe,0xff,0x03,
 0x02,0x00,0x02,0x3a,0x00,0x02,0x3a,0x00,0x02,0x3a,0x00,0x02,0x02,0x00,0x02,
 0xfe,0xff,0x03,0x00,0x00,0x00,0x00,0x00,0x00,0x00,0x00,0x00,0x00,0x00,0x00,
 0x01,0x00,0x04,0x03,0x00,0x06 };
