#define _width 19
#define _height 22
static char _bits[] = {
 0x03,0x00,0x06,0xc1,0x1f,0x04,0x20,0x20,0x00,0x10,0x40,0x00,0x08,0x80,0x00,
 0x08,0x80,0x00,0x04,0x00,0x01,0x04,0x00,0x01,0xe4,0x38,0x01,0x06,0x00,0x03,
 0x02,0x00,0x02,0x02,0x00,0x02,0x06,0x00,0x03,0x04,0x00,0x01,0x08,0x80,0x00,
 0x08,0x87,0x00,0x10,0x40,0x00,0x20,0x20,0x00,0x40,0x10,0x00,0x80,0x0f,0x00,
 0x01,0x00,0x04,0x03,0x00,0x06 };
