#define _width 19
#define _height 22
static char _bits[] = {
 0x03,0x00,0x06,0x01,0x0e,0x04,0x00,0x79,0x00,0xc0,0x49,0x00,0x20,0xc9,0x01,
 0x20,0x49,0x02,0x20,0x49,0x02,0x20,0x49,0x02,0x20,0x49,0x02,0x20,0x49,0x02,
 0x20,0x41,0x02,0x2c,0x00,0x02,0x32,0x00,0x02,0x22,0x00,0x02,0x04,0x00,0x02,
 0x04,0x00,0x02,0x08,0x00,0x02,0x10,0x00,0x02,0x20,0x00,0x01,0x40,0x80,0x00,
 0x81,0x7f,0x04,0x03,0x00,0x06 };
